<svg width="270" height="87" viewBox="0 0 270 87" fill="none" xmlns="http://www.w3.org/2000/svg">
<path d="M37.7363 28.0381H43.2842C43.1729 29.8564 42.6719 31.4707 41.7812 32.8809C40.903 34.291 39.6722 35.3919 38.0889 36.1836C36.5179 36.9753 34.6253 37.3711 32.4111 37.3711C30.6794 37.3711 29.127 37.0742 27.7539 36.4805C26.3809 35.8743 25.2057 35.0085 24.2285 33.8828C23.2637 32.7572 22.5277 31.3965 22.0205 29.8008C21.5133 28.2051 21.2598 26.4176 21.2598 24.4385V22.5645C21.2598 20.5853 21.5195 18.7979 22.0391 17.2021C22.571 15.5941 23.3255 14.2272 24.3027 13.1016C25.2923 11.9759 26.4736 11.11 27.8467 10.5039C29.2197 9.89779 30.7536 9.59473 32.4482 9.59473C34.6995 9.59473 36.5983 10.0029 38.1445 10.8193C39.7031 11.6357 40.9092 12.7614 41.7627 14.1963C42.6286 15.6312 43.1481 17.264 43.3213 19.0947H37.7549C37.693 18.0062 37.4766 17.0846 37.1055 16.3301C36.7344 15.5632 36.1715 14.988 35.417 14.6045C34.6748 14.2087 33.6852 14.0107 32.4482 14.0107C31.5205 14.0107 30.7103 14.1839 30.0176 14.5303C29.3249 14.8766 28.7435 15.4023 28.2734 16.1074C27.8034 16.8125 27.4508 17.7031 27.2158 18.7793C26.9932 19.8431 26.8818 21.0924 26.8818 22.5273V24.4385C26.8818 25.8363 26.987 27.0671 27.1973 28.1309C27.4076 29.1823 27.7292 30.0729 28.1621 30.8027C28.6074 31.5202 29.1764 32.0645 29.8691 32.4355C30.5742 32.7943 31.4215 32.9736 32.4111 32.9736C33.5739 32.9736 34.5326 32.7881 35.2871 32.417C36.0417 32.0459 36.6169 31.4954 37.0127 30.7656C37.4209 30.0358 37.6621 29.1266 37.7363 28.0381ZM57.9238 14.6045L50.5762 37H44.6572L54.6953 9.98438H58.4619L57.9238 14.6045ZM64.0283 37L56.6621 14.6045L56.0684 9.98438H59.8721L69.9658 37H64.0283ZM63.6943 26.9434V31.3037H49.4258V26.9434H63.6943ZM89.8379 32.6582V37H76.2373V32.6582H89.8379ZM78.0371 9.98438V37H72.4707V9.98438H78.0371ZM111.157 32.6582V37H96.7773V32.6582H111.157ZM98.5957 9.98438V37H93.0293V9.98438H98.5957ZM109.283 20.9873V25.2178H96.7773V20.9873H109.283ZM111.139 9.98438V14.3447H96.7773V9.98438H111.139ZM136.392 9.98438V37H130.825L119.971 18.8906V37H114.404V9.98438H119.971L130.844 28.1123V9.98438H136.392ZM149.528 37H143.646L143.684 32.6582H149.528C150.988 32.6582 152.219 32.3304 153.221 31.6748C154.223 31.0068 154.977 30.0358 155.484 28.7617C156.004 27.4876 156.264 25.9476 156.264 24.1416V22.8242C156.264 21.4388 156.115 20.2204 155.818 19.1689C155.534 18.1175 155.107 17.2331 154.538 16.5156C153.969 15.7982 153.27 15.2601 152.441 14.9014C151.613 14.5303 150.66 14.3447 149.584 14.3447H143.535V9.98438H149.584C151.39 9.98438 153.041 10.2936 154.538 10.9121C156.047 11.5182 157.352 12.3903 158.453 13.5283C159.554 14.6663 160.401 16.027 160.995 17.6104C161.601 19.1813 161.904 20.9316 161.904 22.8613V24.1416C161.904 26.0589 161.601 27.8092 160.995 29.3926C160.401 30.9759 159.554 32.3366 158.453 33.4746C157.365 34.6003 156.06 35.4723 154.538 36.0908C153.029 36.6969 151.359 37 149.528 37ZM146.801 9.98438V37H141.234V9.98438H146.801ZM176.525 14.6045L169.178 37H163.259L173.297 9.98438H177.063L176.525 14.6045ZM182.63 37L175.264 14.6045L174.67 9.98438H178.474L188.567 37H182.63ZM182.296 26.9434V31.3037H168.027V26.9434H182.296ZM173.39 8.46289L177.026 2.74805H182.834L177.731 8.46289H173.39ZM191.072 9.98438H201.147C203.213 9.98438 204.988 10.2936 206.473 10.9121C207.969 11.5306 209.12 12.446 209.924 13.6582C210.728 14.8704 211.13 16.361 211.13 18.1299C211.13 19.5771 210.882 20.8203 210.388 21.8594C209.905 22.8861 209.219 23.7458 208.328 24.4385C207.45 25.1188 206.417 25.6631 205.229 26.0713L203.467 26.999H194.709L194.672 22.6572H201.185C202.162 22.6572 202.972 22.484 203.615 22.1377C204.258 21.7913 204.741 21.3089 205.062 20.6904C205.396 20.0719 205.563 19.3545 205.563 18.5381C205.563 17.6722 205.403 16.9238 205.081 16.293C204.759 15.6621 204.271 15.1797 203.615 14.8457C202.96 14.5117 202.137 14.3447 201.147 14.3447H196.639V37H191.072V9.98438ZM206.176 37L200.016 24.958L205.897 24.9209L212.132 36.7402V37H206.176ZM221.335 9.98438V37H215.787V9.98438H221.335ZM248.74 22.8613V24.1416C248.74 26.195 248.462 28.0381 247.905 29.6709C247.349 31.3037 246.563 32.6953 245.549 33.8457C244.535 34.9837 243.322 35.8558 241.912 36.4619C240.514 37.068 238.962 37.3711 237.255 37.3711C235.56 37.3711 234.008 37.068 232.598 36.4619C231.2 35.8558 229.988 34.9837 228.961 33.8457C227.934 32.6953 227.136 31.3037 226.567 29.6709C226.011 28.0381 225.732 26.195 225.732 24.1416V22.8613C225.732 20.7956 226.011 18.9525 226.567 17.332C227.124 15.6992 227.91 14.3076 228.924 13.1572C229.951 12.0068 231.163 11.1286 232.561 10.5225C233.971 9.91634 235.523 9.61328 237.218 9.61328C238.925 9.61328 240.477 9.91634 241.875 10.5225C243.285 11.1286 244.497 12.0068 245.512 13.1572C246.538 14.3076 247.33 15.6992 247.887 17.332C248.456 18.9525 248.74 20.7956 248.74 22.8613ZM243.118 24.1416V22.8242C243.118 21.3893 242.988 20.1276 242.729 19.0391C242.469 17.9505 242.085 17.0352 241.578 16.293C241.071 15.5508 240.452 14.9941 239.723 14.623C238.993 14.2396 238.158 14.0479 237.218 14.0479C236.278 14.0479 235.443 14.2396 234.713 14.623C233.995 14.9941 233.383 15.5508 232.876 16.293C232.381 17.0352 232.004 17.9505 231.744 19.0391C231.484 20.1276 231.354 21.3893 231.354 22.8242V24.1416C231.354 25.5641 231.484 26.8258 231.744 27.9268C232.004 29.0153 232.387 29.9368 232.895 30.6914C233.402 31.4336 234.02 31.9964 234.75 32.3799C235.48 32.7633 236.315 32.9551 237.255 32.9551C238.195 32.9551 239.03 32.7633 239.76 32.3799C240.49 31.9964 241.102 31.4336 241.597 30.6914C242.091 29.9368 242.469 29.0153 242.729 27.9268C242.988 26.8258 243.118 25.5641 243.118 24.1416Z" fill="url(#paint0_linear_122_239)"/>
<path d="M103.643 86.9968C100.433 86.9968 97.0597 86.3885 94.4161 84.9233V59.0735C97.0183 57.6498 100.391 57 103.643 57C106.895 57 110.188 57.6084 112.787 59.0735V68.9917H106.242V62.2426C105.471 61.9178 104.535 61.7967 103.602 61.7967C102.669 61.7967 101.812 61.9178 101 62.2426V81.7542C101.77 82.0791 102.665 82.2001 103.602 82.2001C104.538 82.2001 105.43 82.0791 106.242 81.7542V75.0083H112.787V84.9265C110.227 86.3503 106.854 86.9586 103.643 87V86.9968Z" fill="#F7DD43"/>
<path d="M125.063 86.9968C121.607 86.9968 118.275 86.2642 115.632 84.7609V59.1945C118.234 57.7326 121.569 57 125.063 57C128.557 57 131.809 57.6912 134.411 59.1945V84.7609C131.85 86.2642 128.477 86.9554 125.063 86.9968ZM127.869 62.3254C127.098 62.0005 126.162 61.8381 125.025 61.8381C123.888 61.8381 122.993 62.0005 122.219 62.3254V81.6331C122.989 81.9994 123.926 82.1619 125.025 82.1619C126.123 82.1619 127.057 81.9994 127.869 81.6331V62.3254Z" fill="#F7DD43"/>
<path d="M145.832 76.0211H144.084V86.6305H137.459V57.3663H145.832C149.817 57.3663 152.824 58.1785 155.18 59.8443V73.5431C152.865 75.1707 149.814 76.0211 145.832 76.0211ZM148.597 62.405C147.989 61.9591 147.173 61.7553 145.791 61.7553H144.001V71.6321H145.791C147.132 71.6321 147.944 71.4283 148.597 71.0238V62.405Z" fill="#F7DD43"/>
<path d="M169.039 86.6305V76.0211H164.162V86.6305H157.579V59.1531C159.977 57.7294 163.35 57 166.602 57C169.854 57 173.186 57.7326 175.584 59.1531V86.6305H169.039ZM169.039 62.0801C168.347 61.7553 167.494 61.5928 166.599 61.5928C165.704 61.5928 164.85 61.7553 164.159 62.0801V71.3869H169.035V62.0801H169.039Z" fill="#F7DD43"/>
<defs>
<linearGradient id="paint0_linear_122_239" x1="135" y1="0" x2="135" y2="49" gradientUnits="userSpaceOnUse">
<stop stop-color="white"/>
<stop offset="1" stop-color="#D9D9D9" stop-opacity="0.8"/>
</linearGradient>
</defs>
</svg>
